<svg width="174" height="44" viewBox="0 0 174 44" fill="none" xmlns="http://www.w3.org/2000/svg">
<g clip-path="url(#clip0)">
<path d="M44.1065 22C44.1065 17.0441 42.4291 12.2333 39.3461 8.34719C36.2631 4.46104 31.9551 1.72718 27.12 0.588541C22.285 -0.550098 17.2062 -0.0268067 12.7066 2.07363C8.2069 4.17407 4.54995 7.7286 2.32823 12.1613C0.106511 16.594 -0.549828 21.6453 0.465556 26.4966C1.48094 31.3479 4.10856 35.7151 7.92269 38.8906C11.7368 42.0661 16.514 43.8638 21.4803 43.9926C26.4465 44.1214 31.3108 42.5736 35.2852 39.6H21.4946C18.0496 39.5068 14.7075 38.4091 11.8809 36.4425C9.05424 34.4759 6.86683 31.7265 5.58875 28.5338C4.31067 25.3411 3.99789 21.8449 4.68901 18.4769C5.38013 15.1088 7.0449 12.0165 9.47777 9.5816C11.9106 7.14673 15.0051 5.47596 18.379 4.77559C21.7529 4.07522 25.2586 4.37592 28.4631 5.64056C31.6676 6.9052 34.4308 9.0784 36.4113 11.8918C38.3918 14.7053 39.503 18.0357 39.6076 21.472V35.2C42.5254 31.4153 44.1071 26.7745 44.1065 22Z" fill="white"/>
<path d="M33.0651 32.9855V23.7455H26.2139C25.7947 24.7116 25.0648 25.5109 24.1395 26.0171C23.2142 26.5233 22.1463 26.7077 21.1043 26.541C20.0624 26.3744 19.1057 25.8663 18.3854 25.0969C17.6651 24.3275 17.2222 23.3407 17.1267 22.2923C17.0312 21.2439 17.2884 20.1936 17.8578 19.3073C18.4272 18.4209 19.2763 17.7491 20.2711 17.3977C21.2659 17.0464 22.3496 17.0356 23.3512 17.3671C24.3528 17.6985 25.2152 18.3534 25.8023 19.2282H32.727C32.2389 17.2271 31.2033 15.4006 29.7356 13.9523C28.2678 12.5041 26.4257 11.491 24.4145 11.026C22.4034 10.5611 20.3023 10.6626 18.3456 11.3192C16.3889 11.9758 14.6535 13.1616 13.3329 14.7446C12.0123 16.3275 11.1584 18.2453 10.8664 20.2841C10.5744 22.3228 10.8559 24.4024 11.6794 26.2909C12.5028 28.1795 13.836 29.8027 15.5301 30.9796C17.2243 32.1565 19.2128 32.8408 21.274 32.9562L33.0651 32.9855Z" fill="white"/>
<path d="M59.3967 15.7961C57.8969 15.799 56.4316 16.2454 55.186 17.0787C53.9404 17.912 52.9703 19.095 52.3984 20.4781C51.8264 21.8613 51.6783 23.3825 51.9727 24.8496C52.267 26.3166 52.9907 27.6637 54.0523 28.7207C55.1138 29.7776 56.4656 30.497 57.9368 30.7878C59.408 31.0786 60.9326 30.9279 62.318 30.3546C63.7033 29.7814 64.8873 28.8114 65.7202 27.5672C66.5532 26.3229 66.9977 24.8603 66.9977 23.3641C67.0076 22.3663 66.8176 21.3766 66.4389 20.453C66.0602 19.5294 65.5005 18.6905 64.7925 17.9856C64.0845 17.2807 63.2425 16.7239 62.316 16.348C61.3894 15.972 60.3969 15.7844 59.3967 15.7961ZM59.3967 27.3241C58.8772 27.3325 58.3614 27.2351 57.8809 27.0379C57.4004 26.8407 56.9652 26.5479 56.6019 26.1773C56.2386 25.8067 55.9549 25.366 55.7681 24.8824C55.5813 24.3987 55.4953 23.8821 55.5153 23.3641C55.4827 22.8346 55.5591 22.3041 55.7397 21.8051C55.9204 21.3062 56.2015 20.8494 56.5658 20.4629C56.9301 20.0764 57.3699 19.7685 57.858 19.558C58.3461 19.3474 58.8723 19.2388 59.4041 19.2388C59.9359 19.2388 60.462 19.3474 60.9501 19.558C61.4383 19.7685 61.878 20.0764 62.2423 20.4629C62.6066 20.8494 62.8878 21.3062 63.0684 21.8051C63.2491 22.3041 63.3254 22.8346 63.2928 23.3641C63.3129 23.8834 63.2265 24.4012 63.0388 24.8859C62.8511 25.3706 62.566 25.8119 62.2012 26.1827C61.8363 26.5535 61.3994 26.8461 60.9171 27.0423C60.4349 27.2386 59.9175 27.3345 59.3967 27.3241ZM73.1285 18.6708V16.1335H69.4236V30.4775H73.1285V23.6868C73.1022 23.1329 73.2052 22.5805 73.4294 22.0732C73.6536 21.5658 73.993 21.1174 74.4207 20.7633C74.8484 20.4091 75.3527 20.159 75.8939 20.0326C76.4351 19.9062 76.9983 19.9069 77.5392 20.0348V15.9135C76.6059 15.8469 75.6755 16.0782 74.8827 16.5739C74.0898 17.0695 73.4755 17.8039 73.1285 18.6708ZM90.3006 17.8935C89.7402 17.2033 89.0252 16.6541 88.2132 16.2898C87.4012 15.9255 86.5148 15.7564 85.6254 15.7961C84.6688 15.8338 83.729 16.0598 82.8603 16.4611C81.9916 16.8624 81.2109 17.431 80.5633 18.1344C79.9156 18.8377 79.4137 19.6618 79.0865 20.5593C78.7593 21.4569 78.6132 22.4101 78.6565 23.3641C78.6132 24.3182 78.7593 25.2714 79.0865 26.1689C79.4137 27.0665 79.9156 27.8906 80.5633 28.5939C81.2109 29.2972 81.9916 29.8659 82.8603 30.2672C83.729 30.6685 84.6688 30.8945 85.6254 30.9321C86.5148 30.9718 87.4012 30.8028 88.2132 30.4385C89.0252 30.0742 89.7402 29.5249 90.3006 28.8348V30.5361H94.0056V16.1335H90.3006V17.8935ZM86.3164 27.4121C85.7817 27.4313 85.2489 27.339 84.7519 27.1414C84.255 26.9438 83.8047 26.645 83.4299 26.2642C83.055 25.8833 82.7638 25.4288 82.5748 24.9295C82.3858 24.4302 82.3031 23.8971 82.3321 23.3641C82.3321 22.3139 82.7503 21.3066 83.4947 20.564C84.2392 19.8214 85.2489 19.4041 86.3017 19.4041C87.3545 19.4041 88.3641 19.8214 89.1086 20.564C89.853 21.3066 90.2712 22.3139 90.2712 23.3641C90.2977 23.894 90.2143 24.4236 90.0262 24.9198C89.8382 25.4161 89.5496 25.8683 89.1784 26.2482C88.8072 26.6281 88.3615 26.9276 87.869 27.1278C87.3766 27.3281 86.848 27.4249 86.3164 27.4121ZM105.223 15.7961C104.398 15.742 103.572 15.898 102.824 16.2495C102.076 16.6009 101.429 17.1364 100.945 17.8055V16.1335H97.2548V30.4775H100.945V22.7921C100.945 20.2988 102.298 19.2428 104.106 19.2428C104.495 19.2148 104.885 19.2723 105.249 19.4113C105.613 19.5503 105.942 19.7673 106.213 20.0472C106.483 20.327 106.689 20.6627 106.815 21.0306C106.942 21.3985 106.985 21.7895 106.943 22.1761V30.5215H110.648V21.7215C110.648 17.9228 108.267 15.7961 105.223 15.7961ZM124.674 17.9815C124.145 17.2731 123.451 16.7039 122.652 16.3231C121.852 15.9424 120.972 15.7615 120.087 15.7961C119.134 15.8037 118.191 16.0001 117.314 16.3738C116.437 16.7476 115.643 17.2913 114.979 17.9735C114.314 18.6557 113.792 19.4627 113.442 20.3478C113.092 21.2328 112.922 22.1784 112.942 23.1295C112.92 24.0811 113.089 25.0275 113.438 25.9135C113.787 26.7994 114.309 27.6072 114.974 28.2898C115.639 28.9724 116.434 29.516 117.312 29.8891C118.19 30.2622 119.133 30.4572 120.087 30.4628C120.972 30.4974 121.852 30.3165 122.652 29.9358C123.451 29.555 124.145 28.9859 124.674 28.2775V29.8321C124.706 30.3219 124.629 30.8127 124.449 31.2693C124.269 31.7259 123.99 32.1372 123.631 32.4735C123.273 32.8099 122.845 33.0631 122.377 33.215C121.909 33.3669 121.413 33.4137 120.925 33.3521C120.167 33.4454 119.398 33.3023 118.724 32.9426C118.05 32.5829 117.505 32.0241 117.161 31.3428L114.001 33.1615C114.703 34.3135 115.709 35.2502 116.91 35.8686C118.111 36.487 119.46 36.7632 120.808 36.6668C124.586 36.6668 128.291 34.5401 128.291 29.8468V16.1335H124.674V17.9815ZM120.661 27.0601C119.889 27.0428 119.139 26.7989 118.506 26.3589C117.872 25.9188 117.383 25.3022 117.099 24.5861C116.815 23.8701 116.749 23.0864 116.909 22.333C117.069 21.5797 117.448 20.8901 117.999 20.3506C118.55 19.8111 119.248 19.4457 120.006 19.2999C120.764 19.1542 121.548 19.2346 122.261 19.5312C122.973 19.8277 123.582 20.3273 124.011 20.9673C124.441 21.6073 124.671 22.3594 124.674 23.1295C124.689 23.6559 124.595 24.1797 124.397 24.6681C124.2 25.1565 123.903 25.599 123.527 25.968C123.15 26.3369 122.701 26.6243 122.208 26.8122C121.715 27.0002 121.188 27.0846 120.661 27.0601ZM138.377 15.7961C137.376 15.7717 136.382 15.9511 135.454 16.3236C134.525 16.696 133.683 17.2535 132.978 17.962C132.274 18.6705 131.721 19.5151 131.355 20.444C130.989 21.3729 130.817 22.3666 130.849 23.3641C130.814 24.3915 130.995 25.4148 131.382 26.3677C131.768 27.3206 132.351 28.1818 133.093 28.8954C133.834 29.609 134.718 30.1591 135.687 30.51C136.655 30.8609 137.687 31.0047 138.715 30.9321C139.923 30.9767 141.123 30.7197 142.207 30.1844C143.29 29.6492 144.222 28.8525 144.919 27.8668L141.979 26.1508C141.591 26.6254 141.099 27.0045 140.54 27.2589C139.982 27.5132 139.372 27.6359 138.759 27.6175C137.868 27.7326 136.966 27.525 136.216 27.0324C135.466 26.5398 134.918 25.795 134.672 24.9335H145.551C145.643 24.4497 145.692 23.959 145.698 23.4668C145.757 22.4752 145.61 21.4822 145.268 20.5495C144.925 19.6167 144.394 18.7642 143.708 18.0448C143.021 17.3255 142.194 16.7546 141.277 16.3678C140.359 15.981 139.372 15.7864 138.377 15.7961ZM134.613 22.0001C134.767 21.1341 135.236 20.3553 135.931 19.8138C136.626 19.2723 137.497 19.0062 138.377 19.0668C139.227 19.0354 140.06 19.3168 140.716 19.8577C141.372 20.3985 141.805 21.161 141.935 22.0001H134.613ZM158.989 17.8788C158.433 17.1995 157.727 16.6579 156.926 16.2966C156.125 15.9352 155.251 15.7639 154.373 15.7961C153.416 15.8338 152.476 16.0598 151.608 16.4611C150.739 16.8624 149.958 17.431 149.311 18.1344C148.663 18.8377 148.161 19.6618 147.834 20.5593C147.507 21.4569 147.36 22.4101 147.404 23.3641C147.36 24.3182 147.507 25.2714 147.834 26.1689C148.161 27.0665 148.663 27.8906 149.311 28.5939C149.958 29.2972 150.739 29.8659 151.608 30.2672C152.476 30.6685 153.416 30.8945 154.373 30.9321C155.262 30.9718 156.148 30.8028 156.96 30.4385C157.772 30.0742 158.487 29.5249 159.048 28.8348V30.5361H162.753V16.1335H159.048L158.989 17.8788ZM155.005 27.3975C154.473 27.4124 153.943 27.3172 153.45 27.1177C152.956 26.9182 152.509 26.6188 152.138 26.2384C151.766 25.858 151.478 25.4049 151.29 24.9077C151.103 24.4104 151.021 23.8799 151.05 23.3495C151.05 22.2992 151.468 21.292 152.213 20.5493C152.957 19.8067 153.967 19.3895 155.02 19.3895C156.072 19.3895 157.082 19.8067 157.826 20.5493C158.571 21.292 158.989 22.2992 158.989 23.3495C159.018 23.8831 158.935 24.4168 158.746 24.9168C158.557 25.4169 158.267 25.8723 157.892 26.2543C157.517 26.6363 157.067 26.9364 156.57 27.1357C156.073 27.335 155.54 27.4292 155.005 27.4121V27.3975ZM169.633 18.5975V16.1335H165.929V30.4775H169.633V23.6868C169.607 23.1329 169.71 22.5805 169.934 22.0732C170.159 21.5658 170.498 21.1174 170.926 20.7633C171.353 20.4091 171.858 20.159 172.399 20.0326C172.94 19.9062 173.503 19.9069 174.044 20.0348V15.9135C173.111 15.8469 172.18 16.0782 171.388 16.5739C170.595 17.0695 169.98 17.8039 169.633 18.6708V18.5975Z" fill="white"/>
</g>
<defs>
<clipPath id="clip0">
<rect width="174" height="44" fill="white"/>
</clipPath>
</defs>
</svg>
