<svg width="179" height="44" viewBox="0 0 179 44" fill="none" xmlns="http://www.w3.org/2000/svg">
<path d="M64.0943 26.8804C62.3298 26.8804 61.6161 25.641 61.6161 23.4913V17.5459H66.731V15.2801H61.6161V11.4843H59.138V23.7237C59.138 27.2096 60.387 29.1463 63.5193 29.1463C65.0657 29.1463 66.3345 28.604 67.0878 28.0037L66.3147 26.1251C65.7992 26.4737 65.0657 26.8804 64.0943 26.8804ZM74.7799 14.9702C73.0353 14.9702 71.37 15.4544 70.1211 16.2096L70.7753 18.1463C71.8855 17.5653 72.9164 17.1392 74.6213 17.1392C77.377 17.1392 77.7933 18.9015 77.7933 21.4385C76.8616 20.7801 75.4143 20.567 74.324 20.567C71.3106 20.567 69.0505 22.1163 69.0505 24.9051C69.0505 27.5389 70.7951 29.1075 73.3327 29.1075C75.6324 29.1075 76.9607 28.1779 77.7933 27.1322V28.8945H80.1327V20.5283C80.1327 17.0037 78.7449 14.9702 74.7799 14.9702ZM77.7735 25.1762C77.0598 25.9896 76.0091 26.9385 74.1852 26.9385C72.5794 26.9385 71.6674 26.0864 71.6674 24.7889C71.6674 23.2202 73.1543 22.5424 74.6412 22.5424C75.8505 22.5424 76.9012 22.8522 77.7735 23.4526V25.1762ZM91.2942 14.9702C89.3711 14.9702 87.5076 15.7836 86.556 16.8875V15.2801H84.0779V34.9755H86.556V28.2748C87.5472 28.9139 89.0143 29.2044 90.5012 29.2044C94.8825 29.2044 97.7571 26.0283 97.7571 21.8646C97.7373 17.8558 95.2592 14.9702 91.2942 14.9702ZM90.2633 26.9385C88.935 26.9385 87.7851 26.6868 86.5362 25.8734V19.1146C87.4085 18.0494 88.9152 17.236 90.5606 17.236C93.4353 17.236 95.0807 19.2114 95.0807 21.9614C95.1006 24.847 93.237 26.9385 90.2633 26.9385ZM113.657 14.9896L109.573 15.9579C108.621 15.3188 107.412 14.9508 106.044 14.9508C102.535 14.9508 100.334 17.2167 100.334 19.9473C100.334 21.942 101.484 23.6463 103.467 24.4209C103.209 24.7308 103.09 25.1568 103.09 25.5635C103.09 25.9508 103.189 26.3769 103.427 26.6868C100.751 27.229 98.9664 28.6234 98.9664 30.8311C98.9664 33.7941 102 35.1691 106.064 35.1691C110.128 35.1691 113.161 33.736 113.161 30.8311C113.161 27.8681 110.128 26.435 106.064 26.435C105.786 26.435 105.509 26.4737 105.231 26.4737C105.053 26.222 104.954 25.8927 104.954 25.5635C104.954 25.3118 104.993 25.0406 105.112 24.8082C105.429 24.847 105.727 24.847 106.044 24.847C109.494 24.847 111.754 22.6586 111.754 19.9473C111.754 19.0952 111.535 18.2818 111.099 17.5846L113.736 16.9456L113.657 14.9896ZM106.064 28.4491C109.038 28.4491 110.842 29.3593 110.842 30.8699C110.842 32.4191 108.958 33.2325 106.064 33.2325C103.189 33.2325 101.286 32.3804 101.286 30.8699C101.286 29.3593 103.09 28.4491 106.064 28.4491ZM106.044 22.9103C104.002 22.9103 102.674 21.6709 102.674 19.9667C102.674 18.2625 104.002 16.9456 106.044 16.9456C108.126 16.9456 109.414 18.2818 109.414 19.9667C109.414 21.729 107.987 22.9103 106.044 22.9103ZM122.082 14.9702C117.503 14.9702 114.886 18.1269 114.886 22.097C114.886 26.3963 117.84 29.2237 122.36 29.2237C124.224 29.2237 126.246 28.6427 127.594 27.442L126.821 25.5248C125.928 26.3382 124.342 26.9579 122.538 26.9579C119.803 26.9579 117.879 25.4473 117.661 22.8716H128.387C128.486 22.4456 128.545 21.9033 128.545 21.2449C128.545 17.4491 125.671 14.9702 122.082 14.9702ZM117.523 20.8769C117.8 18.7853 119.406 17.236 121.963 17.236C124.382 17.236 125.869 18.6304 125.988 20.8769H117.523ZM134.215 16.8681V15.2607H131.737V28.8945H134.215V19.2308C134.751 18.2237 135.524 17.2941 137.13 17.2941C137.962 17.2941 138.339 17.4103 139.013 17.817L139.885 15.5512C139.429 15.222 138.854 15.0283 137.724 15.0283C135.94 15.0283 134.929 15.8417 134.215 16.8681ZM142.522 28.8945H145V15.2607H142.522V28.8945ZM143.83 8.69556C142.958 8.69556 142.225 9.27654 142.225 10.148C142.225 11.1551 142.978 11.7167 143.83 11.7167C144.604 11.7167 145.357 11.1357 145.357 10.148C145.337 9.27654 144.604 8.69556 143.83 8.69556ZM156.459 15.0283C154.635 15.0283 152.871 15.8998 151.899 16.9456V15.2801H149.421V28.9139H151.899V19.0758C152.791 18.0688 154.258 17.3135 155.844 17.3135C158.441 17.3135 159.79 18.6498 159.79 21.4966V28.9139H162.268V21.0318C162.268 16.7519 160.087 15.0283 156.459 15.0283ZM179 21.2061C179 17.4491 176.125 14.9702 172.517 14.9702C167.938 14.9702 165.321 18.1269 165.321 22.097C165.321 26.3963 168.275 29.2237 172.795 29.2237C174.658 29.2237 176.68 28.6427 178.029 27.442L177.255 25.5248C176.363 26.3382 174.777 26.9579 172.973 26.9579C170.237 26.9579 168.314 25.4473 168.096 22.8716H178.822C178.941 22.4262 179 21.8839 179 21.2061ZM167.957 20.8769C168.235 18.7853 169.841 17.236 172.398 17.236C174.817 17.236 176.304 18.6304 176.423 20.8769H167.957Z" fill="white"/>
<path d="M44.9433 20.8187C44.9433 20.7799 44.9433 20.7218 44.9235 20.6831C44.7649 18.0687 44.1503 15.5898 43.1392 13.2852C40.899 25.7764 29.7177 35.2465 16.2763 35.2465C11.0227 35.2465 6.1061 33.794 1.94285 31.2764C2.16093 31.7412 2.39883 32.206 2.65655 32.6514C2.65655 32.6514 2.65655 32.6514 2.65655 32.6708C2.91428 33.0968 3.172 33.5229 3.44955 33.9489C3.46938 33.9683 3.46938 33.9877 3.4892 34.007C4.0443 34.8398 4.65888 35.6144 5.3131 36.3697C5.35275 36.4085 5.37258 36.4472 5.41223 36.4859C6.06645 37.2218 6.78015 37.8996 7.51368 38.5387C7.57315 38.5775 7.6128 38.6162 7.67228 38.6743C8.4058 39.294 9.1988 39.875 10.0116 40.3979C10.0711 40.4366 10.1504 40.4754 10.2297 40.5335C10.6064 40.7658 10.9831 40.9982 11.3796 41.2113C11.4192 41.2306 11.4589 41.25 11.4985 41.2887C11.9148 41.5211 12.351 41.7342 12.7871 41.9278C12.8664 41.9665 12.9457 42.0053 13.025 42.044C13.4017 42.2183 13.7784 42.3732 14.1749 42.5088C14.2542 42.5475 14.3533 42.5669 14.4326 42.6056C14.8886 42.7606 15.3446 42.9155 15.8005 43.0511C15.8798 43.0704 15.9591 43.0898 16.0583 43.1285C16.4548 43.2447 16.8513 43.3415 17.2478 43.4384C17.3667 43.4577 17.4658 43.4965 17.5848 43.5158C18.0606 43.6127 18.5364 43.7095 19.0122 43.7676C19.0717 43.7676 19.1311 43.787 19.2104 43.787C19.6466 43.8451 20.0629 43.8838 20.4991 43.9225C20.6378 43.9419 20.7568 43.9419 20.8956 43.9419C21.3912 43.9806 21.8868 44 22.4023 44C34.8722 44 44.9829 34.162 44.9829 22.0194C44.9631 21.5739 44.9631 21.206 44.9433 20.8187ZM39.4121 7.53345C38.0442 6.00352 36.4384 4.64789 34.6739 3.52465C30.8874 8.05634 25.0985 10.9613 18.6157 10.9613C13.8775 10.9613 9.516 9.41197 6.0268 6.79753C2.81515 10.1285 0.6344 14.3891 0 19.1532C4.22273 21.8063 9.23845 23.3363 14.6309 23.3363C25.713 23.3363 35.2489 16.8486 39.4121 7.53345ZM30.6891 1.52993C28.1119 0.542254 25.3165 0 22.3824 0C19.0518 0 15.8798 0.716549 13.0449 1.97535C15.6221 2.76937 18.358 3.21479 21.2128 3.21479C24.5434 3.19542 27.7352 2.59507 30.6891 1.52993Z" fill="white"/>
</svg>
