<svg width="181" height="38" viewBox="0 0 181 38" fill="none" xmlns="http://www.w3.org/2000/svg">
<path d="M2.28632 36.1906L5.63095 31.7445L2.49016 28.3499H3.44901L7.96388 33.3442V28.3499H8.71888V33.3442L13.2337 28.3499H14.1926L11.0367 31.7445L14.3964 36.1906H13.4678L10.5611 32.2852L8.71888 34.2679V36.1906H7.96388V34.2679L6.1217 32.2702L3.21496 36.1906H2.28632ZM16.2311 36.1906V28.3499H16.9936V35.1917L22.339 28.3499H23.1015V36.1906H22.339V29.3487L16.9936 36.1906H16.2311ZM24.5965 36.1906L24.7399 35.4996C24.9866 35.5697 25.1853 35.6047 25.3364 35.6047C25.5075 35.6047 25.6509 35.5922 25.7667 35.5672C25.8875 35.5371 26.0158 35.4695 26.1517 35.3644C26.2877 35.2593 26.4009 35.1116 26.4915 34.9214C26.5821 34.7311 26.6701 34.4682 26.7557 34.1328C26.8463 33.7973 26.9168 33.3918 26.9671 32.9161C27.0225 32.4354 27.0678 31.8471 27.103 31.1512C27.1383 30.4552 27.1584 29.6592 27.1634 28.7629V28.3499H32.5314V36.1906H31.7689V29.0258H27.8882V29.2361C27.8882 30.1523 27.8656 30.9659 27.8203 31.6769C27.78 32.3829 27.7247 32.9837 27.6542 33.4793C27.5888 33.9751 27.4981 34.3981 27.3824 34.7485C27.2666 35.0941 27.1483 35.3694 27.0275 35.5747C26.9067 35.775 26.7557 35.9327 26.5745 36.0479C26.3934 36.158 26.2196 36.2281 26.0536 36.2581C25.8925 36.2932 25.6962 36.3107 25.4647 36.3107C25.1777 36.3107 24.8883 36.2706 24.5965 36.1906ZM34.8719 32.2702C34.8719 31.7245 34.9751 31.2012 35.1815 30.7006C35.3879 30.1999 35.6672 29.7643 36.0196 29.3938C36.3718 29.0183 36.8022 28.7204 37.3106 28.5001C37.8189 28.2748 38.36 28.1621 38.9338 28.1621C39.6939 28.1621 40.3834 28.3499 41.0025 28.7254C41.6267 29.0959 42.1098 29.5966 42.4521 30.2274C42.7994 30.8533 42.9731 31.5342 42.9731 32.2702C42.9731 33.0012 42.7994 33.6797 42.4521 34.3055C42.1048 34.9313 41.6166 35.4345 40.9874 35.8151C40.3633 36.1906 39.6687 36.3783 38.9036 36.3783C38.3348 36.3783 37.7988 36.2682 37.2955 36.0479C36.7921 35.8276 36.3643 35.5322 36.012 35.1617C35.6597 34.7912 35.3803 34.3555 35.174 33.8549C34.9726 33.3491 34.8719 32.8209 34.8719 32.2702ZM35.6873 32.2702C35.6873 33.2165 35.9994 34.0201 36.6235 34.681C37.2527 35.3369 38.0227 35.6648 38.9338 35.6648C39.5076 35.6648 40.0411 35.5146 40.5344 35.2142C41.0276 34.9088 41.4203 34.4958 41.7122 33.9751C42.0041 33.4543 42.1501 32.8861 42.1501 32.2702C42.1501 31.3289 41.833 30.5278 41.1988 29.8669C40.5646 29.201 39.7995 28.8681 38.9036 28.8681C38.3197 28.8681 37.7812 29.0208 37.2879 29.3262C36.7947 29.6266 36.4046 30.0397 36.1177 30.5654C35.8307 31.0861 35.6873 31.6544 35.6873 32.2702ZM45.2984 36.1906V28.3499H46.061V35.1917L51.4064 28.3499H52.1689V36.1906H51.4064V29.3487L46.061 36.1906H45.2984ZM46.6499 25.3007L47.284 25.1655C47.4854 25.9115 47.9686 26.2846 48.7337 26.2846C49.5038 26.2846 49.9895 25.9115 50.1908 25.1655L50.825 25.3007C50.7294 25.8114 50.4903 26.2345 50.1077 26.5699C49.7252 26.9054 49.2672 27.0731 48.7337 27.0731C48.2001 27.0731 47.7421 26.9054 47.3595 26.5699C46.9821 26.2345 46.7455 25.8114 46.6499 25.3007ZM59.6735 36.1906V28.3499H60.4361V33.3742L65.3209 28.3499H66.3251L62.8747 31.8196L66.4307 36.1906H65.4719L62.3538 32.3603L60.4361 34.283V36.1906H59.6735ZM67.7293 32.2702C67.7293 31.7245 67.8325 31.2012 68.0389 30.7006C68.2453 30.1999 68.5246 29.7643 68.877 29.3938C69.2292 29.0183 69.6596 28.7204 70.168 28.5001C70.6763 28.2748 71.2174 28.1621 71.7913 28.1621C72.5513 28.1621 73.2408 28.3499 73.8599 28.7254C74.4841 29.0959 74.9672 29.5966 75.3095 30.2274C75.6568 30.8533 75.8305 31.5342 75.8305 32.2702C75.8305 33.0012 75.6568 33.6797 75.3095 34.3055C74.9622 34.9313 74.474 35.4345 73.8448 35.8151C73.2207 36.1906 72.5261 36.3783 71.7611 36.3783C71.1922 36.3783 70.6562 36.2682 70.1529 36.0479C69.6495 35.8276 69.2217 35.5322 68.8694 35.1617C68.5171 34.7912 68.2377 34.3555 68.0314 33.8549C67.83 33.3491 67.7293 32.8209 67.7293 32.2702ZM68.5447 32.2702C68.5447 33.2165 68.8568 34.0201 69.4809 34.681C70.1101 35.3369 70.8802 35.6648 71.7913 35.6648C72.365 35.6648 72.8985 35.5146 73.3918 35.2142C73.885 34.9088 74.2777 34.4958 74.5696 33.9751C74.8615 33.4543 75.0075 32.8861 75.0075 32.2702C75.0075 31.3289 74.6904 30.5278 74.0562 29.8669C73.422 29.201 72.657 28.8681 71.7611 28.8681C71.1771 28.8681 70.6386 29.0208 70.1453 29.3262C69.6521 29.6266 69.262 30.0397 68.9751 30.5654C68.6882 31.0861 68.5447 31.6544 68.5447 32.2702ZM78.1558 36.1906V28.3499H78.8429L82.0591 32.8561L85.2755 28.3499H85.9549V36.1906H85.1924V29.6566L82.0214 33.9901L78.8882 29.6566V36.1906H78.1558ZM88.8315 36.1906V28.3499H95.3925V36.1906H94.6303V29.0258H89.594V36.1906H88.8315ZM96.8951 36.1906L97.0378 35.4996C97.2852 35.5697 97.4835 35.6047 97.6345 35.6047C97.8055 35.6047 97.9492 35.5922 98.0647 35.5672C98.1857 35.5371 98.3139 35.4695 98.4504 35.3644C98.5859 35.2593 98.6996 35.1116 98.7896 34.9214C98.8806 34.7311 98.9688 34.4682 99.0543 34.1328C99.1444 33.7973 99.2153 33.3918 99.2653 32.9161C99.3208 32.4354 99.3663 31.8471 99.4018 31.1512C99.4363 30.4552 99.4563 29.6592 99.4618 28.7629V28.3499H104.83V36.1906H104.068V29.0258H100.187V29.2361C100.187 30.1523 100.164 30.9659 100.118 31.6769C100.078 32.3829 100.023 32.9837 99.9529 33.4793C99.8875 33.9751 99.7965 34.3981 99.681 34.7485C99.5646 35.0941 99.4463 35.3694 99.3263 35.5747C99.2053 35.775 99.0543 35.9327 98.8733 36.0479C98.6914 36.158 98.5177 36.2281 98.3521 36.2581C98.1912 36.2932 97.9947 36.3107 97.7628 36.3107C97.4762 36.3107 97.187 36.2706 96.8951 36.1906ZM107.17 32.2552C107.17 31.6944 107.266 31.1637 107.458 30.663C107.649 30.1573 107.908 29.7217 108.235 29.3562C108.562 28.9907 108.957 28.7003 109.42 28.4851C109.888 28.2698 110.384 28.1621 110.908 28.1621C111.627 28.1621 112.264 28.3449 112.818 28.7104C113.376 29.0709 113.802 29.5615 114.094 30.1824C114.386 30.8032 114.531 31.4992 114.531 32.2702C114.531 32.3953 114.527 32.498 114.517 32.5781H107.971C108.036 33.5194 108.365 34.2705 108.959 34.8312C109.559 35.3869 110.261 35.6648 111.066 35.6648C112.103 35.6648 113.004 35.2567 113.769 34.4407L114.297 34.8988C113.854 35.3745 113.376 35.74 112.863 35.9953C112.355 36.2506 111.745 36.3783 111.036 36.3783C110.523 36.3783 110.029 36.2781 109.556 36.0779C109.088 35.8776 108.678 35.6023 108.325 35.2518C107.973 34.8963 107.691 34.4607 107.479 33.945C107.274 33.4242 107.17 32.861 107.17 32.2552ZM107.971 31.9023H113.709C113.683 31.4967 113.605 31.1161 113.474 30.7607C113.343 30.4002 113.165 30.0772 112.939 29.7918C112.712 29.5014 112.42 29.2736 112.063 29.1084C111.711 28.9382 111.315 28.8531 110.878 28.8531C110.103 28.8531 109.44 29.1434 108.892 29.7242C108.348 30.305 108.041 31.031 107.971 31.9023ZM116.736 36.1906V28.3499H117.499V33.3742L122.383 28.3499H123.387L119.938 31.8196L123.493 36.1906H122.534L119.416 32.3603L117.499 34.283V36.1906H116.736ZM124.792 32.2702C124.792 31.5292 124.968 30.8458 125.32 30.2199C125.673 29.5891 126.156 29.0884 126.77 28.7179C127.389 28.3474 128.069 28.1621 128.808 28.1621C130.036 28.1621 131.083 28.6503 131.949 29.6266L131.421 30.1598C131.019 29.7493 130.613 29.4313 130.205 29.206C129.802 28.9807 129.332 28.8681 128.794 28.8681C128.22 28.8681 127.689 29.0208 127.2 29.3262C126.712 29.6266 126.324 30.0397 126.038 30.5654C125.75 31.0861 125.608 31.6544 125.608 32.2702C125.608 33.2165 125.921 34.0201 126.551 34.681C127.18 35.3369 127.948 35.6648 128.854 35.6648C129.795 35.6648 130.668 35.2192 131.473 34.328L132.025 34.8237C131.587 35.3194 131.111 35.7023 130.597 35.9728C130.09 36.2431 129.493 36.3783 128.808 36.3783C128.063 36.3783 127.381 36.1955 126.763 35.8301C126.149 35.4596 125.665 34.9613 125.313 34.3355C124.966 33.7046 124.792 33.0162 124.792 32.2702Z" fill="white"/>
<path d="M16.8249 19.5754C16.0245 20.1593 15.0506 20.5972 13.9034 20.8891C12.7829 21.2076 11.6223 21.3668 10.4217 21.3668C8.82084 21.3668 7.46016 21.1147 6.3396 20.6105C5.24572 20.1062 4.35194 19.4029 3.65825 18.5006C2.96457 17.5716 2.45765 16.457 2.13749 15.1566C1.84401 13.8561 1.69727 12.423 1.69727 10.8571C1.69727 7.48662 2.45765 4.899 3.97841 3.09427C5.49918 1.26303 7.71362 0.347412 10.6218 0.347412C12.0892 0.347412 13.2631 0.466841 14.1436 0.705698C15.0506 0.944555 15.8644 1.24973 16.5848 1.62132L15.3442 5.84113C14.7305 5.54916 14.1168 5.3236 13.5032 5.16436C12.9162 5.00513 12.2359 4.92551 11.4622 4.92551C10.0215 4.92551 8.92757 5.40322 8.18052 6.35865C7.43348 7.28757 7.05996 8.78703 7.05996 10.8571C7.05996 11.7064 7.15334 12.4893 7.3401 13.2059C7.52687 13.9225 7.80701 14.5461 8.18052 15.0769C8.55405 15.6078 9.03429 16.0324 9.62128 16.3508C10.2349 16.6428 10.9419 16.7887 11.7423 16.7887C12.6228 16.7887 13.3698 16.6826 13.9835 16.4703C14.5971 16.2314 15.1441 15.9527 15.6243 15.6343L16.8249 19.5754ZM32.0172 11.7329L32.2173 8.90646H32.0972L30.3763 11.8126L23.2528 20.8095H19.9711V0.904745H25.1737V10.3794L24.9336 13.0865H25.0937L26.7345 10.26L33.9381 0.904745H37.2198V20.8095H32.0172V11.7329ZM56.1862 5.48284H50.5434V20.8095H45.1807V5.48284H39.5379V0.904745H56.1862V5.48284ZM70.5522 11.7329L70.7523 8.90646H70.6322L68.9113 11.8126L61.7878 20.8095H58.5061V0.904745H63.7087V10.3794L63.4686 13.0865H63.6287L65.2695 10.26L72.4731 0.904745H75.7548V20.8095H70.5522V11.7329ZM112.084 5.48284H105.761V20.8095H100.559V0.904745H117.287V20.8095H112.084V5.48284ZM121.738 2.05922C122.805 1.58151 124.072 1.20992 125.54 0.944555C127.007 0.652588 128.542 0.506649 130.143 0.506649C131.53 0.506649 132.69 0.679188 133.624 1.02417C134.558 1.34265 135.292 1.80706 135.825 2.41751C136.386 3.02795 136.772 3.75773 136.986 4.60703C137.226 5.45633 137.346 6.41176 137.346 7.47332C137.346 8.64109 137.306 9.82208 137.226 11.0164C137.146 12.1841 137.092 13.3386 137.066 14.4798C137.066 15.621 137.106 16.7356 137.186 17.8238C137.266 18.8854 137.466 19.8939 137.786 20.8493H133.544L132.704 18.1025H132.504C131.97 18.9252 131.223 19.6417 130.263 20.2522C129.329 20.836 128.114 21.128 126.621 21.128C125.687 21.128 124.846 20.9953 124.1 20.7299C123.352 20.4379 122.712 20.0398 122.179 19.5356C121.645 19.0048 121.231 18.3944 120.938 17.7044C120.644 16.9878 120.498 16.1916 120.498 15.3158C120.498 14.095 120.764 13.0732 121.298 12.2505C121.858 11.4012 122.645 10.7244 123.659 10.2202C124.7 9.68935 125.927 9.33107 127.341 9.14532C128.782 8.93297 130.383 8.86665 132.144 8.94627C132.33 7.46002 132.224 6.39846 131.823 5.76151C131.423 5.09805 130.529 4.76627 129.142 4.76627C128.102 4.76627 126.994 4.8724 125.82 5.08475C124.673 5.29709 123.726 5.57576 122.979 5.92075L121.738 2.05922ZM128.342 16.8684C129.382 16.8684 130.209 16.6428 130.823 16.1916C131.436 15.7139 131.89 15.2097 132.184 14.6788V12.0912C131.356 12.0116 130.556 11.9983 129.782 12.0514C129.035 12.1045 128.368 12.224 127.781 12.4097C127.194 12.5954 126.727 12.8609 126.381 13.2059C126.033 13.5509 125.86 13.9888 125.86 14.5196C125.86 15.2627 126.073 15.8466 126.501 16.2712C126.954 16.6693 127.568 16.8684 128.342 16.8684ZM141.712 0.904745H145.514L146.114 3.29332H146.274C146.968 2.28478 147.781 1.5417 148.716 1.06398C149.676 0.586269 150.837 0.347412 152.197 0.347412C154.705 0.347412 156.586 1.1436 157.84 2.73598C159.094 4.30185 159.721 6.83637 159.721 10.3396C159.721 12.0381 159.521 13.5775 159.121 14.9575C158.721 16.311 158.12 17.4655 157.32 18.4209C156.546 19.3764 155.585 20.1062 154.438 20.6105C153.318 21.1147 152.024 21.3668 150.557 21.3668C149.73 21.3668 149.049 21.3005 148.516 21.1678C147.982 21.0617 147.449 20.8758 146.915 20.6105V28.7714H141.712V0.904745ZM150.637 4.72646C149.622 4.72646 148.822 4.97862 148.235 5.48284C147.675 5.98706 147.235 6.74345 146.915 7.75198V16.0324C147.289 16.3243 147.689 16.5632 148.115 16.7489C148.569 16.9082 149.156 16.9878 149.876 16.9878C151.371 16.9878 152.491 16.4703 153.238 15.4352C153.985 14.3737 154.358 12.6353 154.358 10.2202C154.358 8.46856 154.065 7.11503 153.478 6.1596C152.891 5.20417 151.944 4.72646 150.637 4.72646ZM169.928 12.5689H168.527V20.8095H163.325V0.904745H168.527V9.38418L169.768 8.82684L174.45 0.904745H180.013L175.171 8.46856L173.13 9.98132L175.371 11.5339L180.774 20.8095H174.811L169.928 12.5689Z" fill="white"/>
<path d="M88.2261 14.4761C90.2355 14.4761 91.8643 12.8558 91.8643 10.8571C91.8643 8.85834 90.2355 7.23804 88.2261 7.23804C86.2168 7.23804 84.588 8.85834 84.588 10.8571C84.588 12.8558 86.2168 14.4761 88.2261 14.4761Z" fill="#F1C650"/>
</svg>
