<svg width="187" height="48" viewBox="0 0 187 48" fill="none" xmlns="http://www.w3.org/2000/svg">
<path d="M9.43387 0.372314L0.209656 5.66887L9.43387 10.9654L0.209656 16.1792L9.43387 21.4758L0.209656 26.6896L9.43387 31.9861L21.4254 25.1999L27.9662 31.9861V21.5171L37.1904 16.2206L9.43387 0.372314ZM26.289 27.5999L11.111 11.8758L26.289 20.4827V27.5999Z" fill="black"/>
<path d="M186.79 23.9999H183.52V18.7034H180.585V23.9999H177.231V26.8137H180.585V40.5516H183.52V26.7723H186.79V23.9999ZM170.019 23.5861C169.046 23.5334 168.076 23.7352 167.207 24.1712C166.338 24.6071 165.602 25.2618 165.072 26.0689V23.9999H162.137V40.5516H165.072V31.0758C165.018 30.4162 165.103 29.753 165.319 29.1267C165.535 28.5005 165.879 27.9246 166.329 27.4344C167.126 26.6981 168.173 26.2845 169.264 26.2758C169.724 26.2527 170.184 26.3214 170.616 26.4778C171.049 26.6342 171.444 26.8751 171.78 27.1861C172.113 27.5394 172.367 27.9576 172.526 28.4138C172.685 28.8699 172.745 29.3539 172.702 29.8344V40.4275H175.637V29.6689C175.656 28.5219 175.397 27.3871 174.883 26.3585C174.419 25.4765 173.724 24.7334 172.87 24.2068C171.987 23.7654 171.009 23.5384 170.019 23.5447V23.5861ZM145.91 31.0758C146.069 29.7321 146.726 28.494 147.755 27.5999C148.812 26.7267 150.151 26.2568 151.529 26.2758C152.816 26.2565 154.067 26.6974 155.051 27.5172C155.571 27.9635 155.995 28.5085 156.298 29.1199C156.6 29.7312 156.775 30.3964 156.812 31.0758H145.91ZM159.747 33.5585C159.816 33.1207 159.844 32.6774 159.83 32.2344C159.837 30.7159 159.493 29.216 158.824 27.8482C158.182 26.5408 157.198 25.4265 155.973 24.6206C154.673 23.8042 153.152 23.3999 151.613 23.462C150.027 23.4521 148.466 23.8515 147.084 24.6206C145.773 25.3627 144.698 26.452 143.982 27.7654C143.229 29.1357 142.853 30.6764 142.891 32.2344C142.853 33.7924 143.229 35.3331 143.982 36.7034C144.698 38.0168 145.773 39.1061 147.084 39.8482C148.466 40.6173 150.027 41.0167 151.613 41.0068C153.339 41.0234 155.032 40.5337 156.476 39.5999C157.783 38.7228 158.756 37.4417 159.243 35.9585H156.225C155.866 36.7263 155.242 37.3426 154.464 37.6965C153.414 38.2158 152.238 38.4367 151.068 38.3344C149.898 38.2321 148.78 37.8106 147.839 37.1172C146.767 36.2111 146.079 34.9412 145.91 33.5585H159.747ZM131.445 38.0689C130.391 38.0777 129.352 37.8213 128.426 37.3241C127.523 36.8051 126.772 36.0637 126.246 35.1723C125.75 34.2554 125.491 33.2322 125.491 32.193C125.491 31.1538 125.75 30.1306 126.246 29.2137C126.772 28.3223 127.523 27.5809 128.426 27.062C129.355 26.573 130.392 26.3172 131.445 26.3172C132.498 26.3172 133.535 26.573 134.464 27.062C135.367 27.5809 136.118 28.3223 136.644 29.2137C137.14 30.1306 137.399 31.1538 137.399 32.193C137.399 33.2322 137.14 34.2554 136.644 35.1723C136.118 36.0637 135.367 36.8051 134.464 37.3241C133.538 37.8213 132.499 38.0777 131.445 38.0689ZM137.399 23.9999V26.8965C136.717 25.8919 135.795 25.0678 134.715 24.4965C133.581 23.8959 132.313 23.583 131.026 23.5861C129.522 23.5984 128.048 23.9978 126.749 24.7447C125.438 25.4868 124.363 26.5761 123.646 27.8896C122.878 29.1972 122.473 30.6816 122.472 32.193C122.473 33.7306 122.878 35.2417 123.646 36.5792C124.387 37.8754 125.456 38.9592 126.749 39.7241C128.039 40.4917 129.519 40.8927 131.026 40.8827C132.282 40.8913 133.521 40.5937 134.633 40.0162C135.745 39.4387 136.695 38.5992 137.399 37.5723V39.8896C137.429 40.5732 137.318 41.2558 137.073 41.8959C136.828 42.5361 136.454 43.1205 135.973 43.6137C134.828 44.5624 133.356 45.0369 131.864 44.9379C130.907 44.9805 129.954 44.7811 129.097 44.3585C128.369 44.0555 127.733 43.5707 127.252 42.9516C126.872 42.4497 126.666 41.8402 126.665 41.2137H123.73C123.735 42.4157 124.149 43.5813 124.904 44.5241C125.679 45.5325 126.725 46.3065 127.923 46.7585C129.159 47.3177 130.505 47.6003 131.864 47.5861C133.313 47.5889 134.744 47.2781 136.057 46.6758C137.324 46.0994 138.399 45.1813 139.16 44.0275C139.959 42.7634 140.367 41.2965 140.334 39.8068V23.9999H137.399ZM116.938 40.5516H119.915V23.9999H116.98L116.938 40.5516ZM116.938 21.0206H119.915V17.3792H116.98L116.938 21.0206ZM110.397 40.5516H113.332V16.6758H110.397V40.5516ZM103.856 40.5516H106.791V16.6758H103.856V40.5516ZM87.5881 31.1172C87.7471 29.7735 88.4043 28.5354 89.4329 27.6413C90.4895 26.7681 91.8285 26.2982 93.2065 26.3172C94.4938 26.2978 95.7448 26.7388 96.7285 27.5585C97.2488 28.0049 97.6728 28.5499 97.9754 29.1613C98.2779 29.7726 98.4527 30.4378 98.4894 31.1172H87.5881ZM101.424 33.5999C101.494 33.1621 101.522 32.7188 101.508 32.2758C101.514 30.7573 101.17 29.2573 100.502 27.8896C99.86 26.5822 98.8757 25.4679 97.6509 24.662C96.3513 23.8456 94.8296 23.4413 93.2903 23.5034C91.7044 23.4935 90.1434 23.8929 88.7621 24.662C87.4508 25.404 86.3761 26.4934 85.6594 27.8068C84.9071 29.1771 84.5313 30.7178 84.5693 32.2758C84.5313 33.8338 84.9071 35.3745 85.6594 36.7447C86.3761 38.0582 87.4508 39.1475 88.7621 39.8896C90.1434 40.6587 91.7044 41.0581 93.2903 41.0482C95.0169 41.0647 96.7097 40.5751 98.154 39.6413C99.4603 38.7642 100.434 37.4831 100.921 35.9999H97.9025C97.5438 36.7677 96.9194 37.3839 96.1415 37.7379C95.0915 38.2572 93.9158 38.4781 92.7458 38.3758C91.5759 38.2735 90.4579 37.852 89.5168 37.1585C88.9718 36.7216 88.5206 36.1819 88.1894 35.5709C87.8583 34.9598 87.6538 34.2898 87.5881 33.5999H101.424ZM84.15 23.9999H80.8796V18.7034H77.9865V23.9999H74.6323V26.8137H77.9865V40.5516H80.9215V26.7723H84.1919L84.15 23.9999ZM63.7309 38.193C62.6769 38.2018 61.6379 37.9455 60.7121 37.4482C59.8089 36.9293 59.0576 36.1879 58.5318 35.2965C58.0363 34.3795 57.7771 33.3563 57.7771 32.3172C57.7771 31.278 58.0363 30.2548 58.5318 29.3379C59.034 28.4287 59.7909 27.6817 60.7121 27.1861C61.6412 26.6971 62.678 26.4413 63.7309 26.4413C64.7839 26.4413 65.8207 26.6971 66.7498 27.1861C67.653 27.705 68.4042 28.4465 68.93 29.3379C69.4255 30.2548 69.6847 31.278 69.6847 32.3172C69.6847 33.3563 69.4255 34.3795 68.93 35.2965C68.4279 36.2056 67.6709 36.9526 66.7498 37.4482C65.8318 37.9651 64.7874 38.2227 63.7309 38.193ZM69.7267 17.3792V26.8137C69.0347 25.7808 68.0848 24.9412 66.9686 24.3759C65.8523 23.8106 64.6073 23.5386 63.3536 23.5861C61.875 23.5875 60.425 23.9881 59.1608 24.7447C57.868 25.5102 56.7989 26.5938 56.0581 27.8896C55.2884 29.2266 54.8838 30.738 54.8838 32.2758C54.8838 33.8135 55.2884 35.3249 56.0581 36.662C56.7989 37.9577 57.868 39.0414 59.1608 39.8068C60.425 40.5634 61.875 40.9641 63.3536 40.9654C64.635 41.0058 65.9054 40.7209 67.0433 40.1379C68.1066 39.5436 69.0231 38.7239 69.7267 37.7379V40.5516H72.6616V17.3792H69.7267ZM43.3119 38.2344C42.2578 38.2432 41.2189 37.9869 40.293 37.4896C39.3898 36.9707 38.6386 36.2292 38.1128 35.3379C37.6173 34.4209 37.3581 33.3977 37.3581 32.3585C37.3581 31.3194 37.6173 30.2962 38.1128 29.3792C38.6149 28.4701 39.3719 27.7231 40.293 27.2275C41.2221 26.7385 42.2589 26.4827 43.3119 26.4827C44.3648 26.4827 45.4016 26.7385 46.3307 27.2275C47.2339 27.7464 47.9852 28.4878 48.511 29.3792C49.0065 30.2962 49.2657 31.3194 49.2657 32.3585C49.2657 33.3977 49.0065 34.4209 48.511 35.3379C48.0088 36.247 47.2519 36.994 46.3307 37.4896C45.4127 38.0064 44.3683 38.2641 43.3119 38.2344ZM49.2657 23.9999V26.8137C48.5737 25.7808 47.6239 24.9412 46.5076 24.3759C45.3913 23.8106 44.1463 23.5386 42.8926 23.5861C41.3859 23.5908 39.9077 23.9921 38.6106 24.7485C37.3134 25.505 36.2442 26.5893 35.5132 27.8896C34.7436 29.2266 34.339 30.738 34.339 32.2758C34.339 33.8135 34.7436 35.3249 35.5132 36.662C36.2442 37.9623 37.3134 39.0465 38.6106 39.803C39.9077 40.5595 41.3859 40.9608 42.8926 40.9654C44.174 41.0058 45.4444 40.7209 46.5823 40.1379C47.6456 39.5436 48.5621 38.7239 49.2657 37.7379V40.5516H52.2007V23.9999H49.2657Z" fill="black"/>
</svg>
